<svg xmlns="http://www.w3.org/2000/svg" xmlns:xlink="http://www.w3.org/1999/xlink" width="500" zoomAndPan="magnify" viewBox="0 0 375 89.999999" height="120" preserveAspectRatio="xMidYMid meet" version="1.0"><defs><g/><clipPath id="eb2d6540e3"><path d="M 159 31 L 172 31 L 172 70 L 159 70 Z M 159 31 " clip-rule="nonzero"/></clipPath><clipPath id="646744692d"><path d="M 152.949219 36.792969 L 169.839844 31.015625 L 181.09375 63.910156 L 164.203125 69.6875 Z M 152.949219 36.792969 " clip-rule="nonzero"/></clipPath><clipPath id="46ebf42c9d"><path d="M 152.949219 36.792969 L 169.839844 31.015625 L 181.09375 63.910156 L 164.203125 69.6875 Z M 152.949219 36.792969 " clip-rule="nonzero"/></clipPath><clipPath id="49604871b9"><path d="M 159 33 L 167 33 L 167 70 L 159 70 Z M 159 33 " clip-rule="nonzero"/></clipPath><clipPath id="1fd3ddad2f"><path d="M 152.949219 36.792969 L 169.839844 31.015625 L 181.09375 63.910156 L 164.203125 69.6875 Z M 152.949219 36.792969 " clip-rule="nonzero"/></clipPath><clipPath id="2556677cd1"><path d="M 152.949219 36.792969 L 169.839844 31.015625 L 181.09375 63.910156 L 164.203125 69.6875 Z M 152.949219 36.792969 " clip-rule="nonzero"/></clipPath></defs><g fill="#ffffff" fill-opacity="1"><g transform="translate(82.079104, 72.098531)"><g><path d="M 16.65625 -41.28125 L 0.296875 -41.28125 L 0.296875 -53.21875 L 47.96875 -53.21875 L 47.96875 -41.28125 L 31.703125 -41.28125 L 31.703125 0 L 16.65625 0 Z M 16.65625 -41.28125 "/></g></g></g><g fill="#ffffff" fill-opacity="1"><g transform="translate(122.603121, 72.098531)"><g><path d="M 22.203125 -41.890625 C 29.046875 -41.890625 34.265625 -40.332031 37.859375 -37.21875 C 41.460938 -34.101562 43.265625 -29.328125 43.265625 -22.890625 L 43.265625 0 L 29.796875 0 L 29.796875 -5.328125 C 27.722656 -1.316406 23.671875 0.6875 17.640625 0.6875 C 14.441406 0.6875 11.675781 0.128906 9.34375 -0.984375 C 7.019531 -2.097656 5.257812 -3.601562 4.0625 -5.5 C 2.875 -7.40625 2.28125 -9.578125 2.28125 -12.015625 C 2.28125 -15.921875 3.773438 -18.945312 6.765625 -21.09375 C 9.753906 -23.25 14.367188 -24.328125 20.609375 -24.328125 L 28.8125 -24.328125 C 28.5625 -28.691406 25.648438 -30.875 20.078125 -30.875 C 18.097656 -30.875 16.09375 -30.554688 14.0625 -29.921875 C 12.039062 -29.285156 10.316406 -28.410156 8.890625 -27.296875 L 4.03125 -37.109375 C 6.3125 -38.628906 9.085938 -39.804688 12.359375 -40.640625 C 15.628906 -41.472656 18.910156 -41.890625 22.203125 -41.890625 Z M 21.671875 -8.4375 C 23.335938 -8.4375 24.804688 -8.84375 26.078125 -9.65625 C 27.347656 -10.46875 28.257812 -11.660156 28.8125 -13.234375 L 28.8125 -16.796875 L 22.578125 -16.796875 C 18.367188 -16.796875 16.265625 -15.40625 16.265625 -12.625 C 16.265625 -11.351562 16.742188 -10.335938 17.703125 -9.578125 C 18.671875 -8.816406 19.992188 -8.4375 21.671875 -8.4375 Z M 21.671875 -8.4375 "/></g></g></g><g fill="#ffffff" fill-opacity="1"><g transform="translate(162.59492, 72.098531)"><g><path d="M 23.34375 -14.453125 L 19.078125 -10.109375 L 19.078125 0 L 4.640625 0 L 4.640625 -56.421875 L 19.078125 -56.421875 L 19.078125 -26.84375 L 33.828125 -41.203125 L 50.9375 -41.203125 L 33.828125 -23.5625 L 52.390625 0 L 34.890625 0 Z M 23.34375 -14.453125 "/></g></g></g><g fill="#ffffff" fill-opacity="1"><g transform="translate(206.996541, 72.098531)"><g><path d="M 19.609375 0.6875 C 16.171875 0.6875 12.773438 0.296875 9.421875 -0.484375 C 6.078125 -1.273438 3.394531 -2.304688 1.375 -3.578125 L 5.703125 -13.453125 C 7.578125 -12.285156 9.804688 -11.359375 12.390625 -10.671875 C 14.972656 -9.992188 17.535156 -9.65625 20.078125 -9.65625 C 22.398438 -9.65625 24.054688 -9.894531 25.046875 -10.375 C 26.035156 -10.851562 26.53125 -11.550781 26.53125 -12.46875 C 26.53125 -13.382812 25.9375 -14.03125 24.75 -14.40625 C 23.5625 -14.789062 21.671875 -15.160156 19.078125 -15.515625 C 15.785156 -15.921875 12.984375 -16.453125 10.671875 -17.109375 C 8.367188 -17.765625 6.378906 -18.976562 4.703125 -20.75 C 3.035156 -22.53125 2.203125 -25.015625 2.203125 -28.203125 C 2.203125 -30.835938 2.988281 -33.179688 4.5625 -35.234375 C 6.132812 -37.285156 8.425781 -38.90625 11.4375 -40.09375 C 14.457031 -41.289062 18.070312 -41.890625 22.28125 -41.890625 C 25.269531 -41.890625 28.234375 -41.582031 31.171875 -40.96875 C 34.109375 -40.363281 36.566406 -39.503906 38.546875 -38.390625 L 34.21875 -28.59375 C 30.5625 -30.613281 26.609375 -31.625 22.359375 -31.625 C 20.078125 -31.625 18.398438 -31.359375 17.328125 -30.828125 C 16.265625 -30.296875 15.734375 -29.597656 15.734375 -28.734375 C 15.734375 -27.773438 16.316406 -27.101562 17.484375 -26.71875 C 18.648438 -26.34375 20.578125 -25.953125 23.265625 -25.546875 C 26.660156 -25.035156 29.472656 -24.453125 31.703125 -23.796875 C 33.929688 -23.140625 35.867188 -21.9375 37.515625 -20.1875 C 39.171875 -18.4375 40 -15.988281 40 -12.84375 C 40 -10.257812 39.210938 -7.941406 37.640625 -5.890625 C 36.066406 -3.835938 33.742188 -2.226562 30.671875 -1.0625 C 27.609375 0.101562 23.921875 0.6875 19.609375 0.6875 Z M 19.609375 0.6875 "/></g></g></g><g fill="#ffffff" fill-opacity="1"><g transform="translate(240.829801, 72.098531)"><g><path d="M 31.484375 -41.890625 C 36.597656 -41.890625 40.710938 -40.367188 43.828125 -37.328125 C 46.953125 -34.285156 48.515625 -29.695312 48.515625 -23.5625 L 48.515625 0 L 34.0625 0 L 34.0625 -21.21875 C 34.0625 -26.84375 31.804688 -29.65625 27.296875 -29.65625 C 24.804688 -29.65625 22.8125 -28.84375 21.3125 -27.21875 C 19.820312 -25.59375 19.078125 -23.160156 19.078125 -19.921875 L 19.078125 0 L 4.640625 0 L 4.640625 -56.421875 L 19.078125 -56.421875 L 19.078125 -37.40625 C 20.648438 -38.875 22.5 -39.988281 24.625 -40.75 C 26.757812 -41.507812 29.046875 -41.890625 31.484375 -41.890625 Z M 31.484375 -41.890625 "/></g></g></g><g clip-path="url(#eb2d6540e3)"><g clip-path="url(#646744692d)"><g clip-path="url(#46ebf42c9d)"><path fill="#000000" d="M 161.226562 33.960938 L 169.644531 31.082031 L 166.835938 44.675781 L 171.769531 42.988281 L 164.175781 69.589844 L 165.148438 50.640625 L 159.871094 52.742188 Z M 161.226562 33.960938 " fill-opacity="1" fill-rule="nonzero"/></g></g></g><g clip-path="url(#49604871b9)"><g clip-path="url(#1fd3ddad2f)"><g clip-path="url(#2556677cd1)"><path fill="#000000" d="M 161.226562 33.960938 L 162.679688 33.464844 L 159.871094 52.742188 Z M 164.175781 69.589844 L 166.164062 50.292969 L 165.148438 50.640625 Z M 164.175781 69.589844 " fill-opacity="1" fill-rule="nonzero"/></g></g></g></svg>